<svg preserveAspectRatio="none" width="100%" height="100%" overflow="visible" style="display: block;" viewBox="0 0 160.428 40.9045" fill="none" xmlns="http://www.w3.org/2000/svg">
<g id="Group">
<path id="Vector" d="M51.1287 9.2982C47.2695 8.30903 46.3117 7.83329 46.3117 6.36838V6.30714C46.3117 5.22376 47.3025 4.36177 49.1802 4.36177C50.7088 4.36177 52.2421 4.90346 53.8698 5.85966C54.2519 6.08104 54.6341 6.20822 55.1153 6.20822C56.3939 6.20822 57.4129 5.22376 57.4129 3.94726C57.4129 2.99107 56.8704 2.3222 56.3278 2.00661C54.318 0.734816 51.9543 0.0329758 49.2463 0.0329758C44.6841 0.0329758 41.4334 2.70845 41.4334 6.74991V6.81586C41.4334 11.2389 44.3349 12.4824 48.8311 13.627C52.5629 14.5832 53.3272 15.2191 53.3272 16.4579V16.5239C53.3272 17.8286 52.1147 18.6247 50.1049 18.6247C47.9347 18.6247 46.0853 17.8616 44.3963 16.6181C44.2972 16.5474 44.1745 16.4815 44.0472 16.4155L42.2827 15.2803C42.2827 15.2803 41.7401 16.1141 41.0607 17.1692C40.9003 17.4141 40.8012 17.6826 40.7494 17.9511C40.7494 17.9605 40.7494 17.9699 40.7446 17.9841C40.7258 18.1018 40.7116 18.2196 40.7116 18.3326C40.7116 18.3656 40.7022 18.3986 40.7022 18.4315C40.7022 19.1946 41.0843 19.8965 41.6269 20.278C44.1132 22.0632 47.0808 22.9535 50.0153 22.9535C54.8322 22.9535 58.2102 20.4711 58.2102 16.0434V15.9775C58.2102 12.0914 55.6579 10.4711 51.1287 9.29349" fill="var(--fill-0, #858686)"/>
<path id="Vector_2" d="M90.273 20.0142C90.2305 19.8446 90.1644 19.6704 90.0842 19.4867L82.3045 1.94537C81.7572 0.730102 80.7994 0 79.4643 0H79.1765C77.8366 0 76.8506 0.730102 76.308 1.94066L76.0533 2.52003C75.9542 2.69431 75.8645 2.88272 75.7749 3.09469L67.528 21.6817C67.528 21.6817 68.2876 22.0962 69.5567 22.619C69.8445 22.7509 70.1606 22.831 70.505 22.831C71.5241 22.831 72.3544 22.2563 72.7696 21.3048L74.3312 17.6449H84.1539L85.6541 21.1494C85.9702 21.8654 86.4468 22.4024 87.0978 22.6614C87.1167 22.6708 87.1356 22.6803 87.1544 22.685C87.2111 22.7038 87.2724 22.7227 87.3337 22.7415C87.8621 22.9064 88.4471 22.9016 89.0086 22.6756C90.2777 22.1527 91.0373 21.7382 91.0373 21.7382L90.273 20.0189V20.0142ZM76.1476 13.3114L79.2425 5.95386L82.3375 13.3114H76.1523H76.1476Z" fill="var(--fill-0, #858686)"/>
<path id="Vector_3" d="M107.71 4.80925C108.951 4.80925 109.942 3.82008 109.942 2.58126C109.942 1.34245 108.951 0.353275 107.71 0.353275H95.2079C93.8397 0.353275 92.7546 1.43665 92.7546 2.80736V20.3816C92.7546 20.4617 92.7687 20.5371 92.7781 20.6124V22.8593C92.7781 22.8593 93.8633 22.8593 95.2314 22.8593C96.5996 22.8593 97.6895 21.8041 97.6895 20.4711V14.0085H106.276C107.522 14.0085 108.508 13.0194 108.508 11.7805C108.508 10.5417 107.522 9.55256 106.276 9.55256H97.6895V4.80925H107.71Z" fill="var(--fill-0, #858686)"/>
<path id="Vector_4" d="M140.495 7.76734V7.70611C140.495 5.6053 139.825 3.85306 138.579 2.60953C137.112 1.14461 134.914 0.348567 132.073 0.348567H124.322C123.053 0.348567 122.038 1.28121 121.897 2.5059C121.84 2.71787 121.798 2.92983 121.798 3.16064V22.8545C121.798 22.8545 122.883 22.8545 124.251 22.8545C124.619 22.8545 124.964 22.7745 125.275 22.6379C125.35 22.6049 125.421 22.5625 125.497 22.5201C125.544 22.4918 125.596 22.473 125.638 22.4447C126.327 22.0114 126.78 21.253 126.78 20.3722V15.5017H130.701L135.484 21.5498C136.06 22.2799 136.791 22.8216 137.909 22.8216C139.089 22.8216 140.235 21.9313 140.235 20.5606C140.235 19.7975 139.919 19.2888 139.438 18.6812L136.027 14.5408C138.74 13.4245 140.49 11.2624 140.49 7.75792M135.517 8.0217C135.517 9.90113 134.145 11.1729 131.753 11.1729H126.78V4.77157H131.658C134.05 4.77157 135.517 5.85495 135.517 7.95576V8.0217Z" fill="var(--fill-0, #B2B1B2)"/>
<path id="Vector_5" d="M151.879 0.348563H145.217C143.892 0.348563 142.844 1.36128 142.774 2.66605C142.741 2.8262 142.722 2.99106 142.722 3.16063V22.8545C142.722 22.8545 143.807 22.8545 145.18 22.8545C146.052 22.8545 146.803 22.4259 147.237 21.7759C147.51 21.3802 147.671 20.8998 147.671 20.3722V15.9445H151.403C156.408 15.9445 160.428 13.269 160.428 8.11119V8.04996C160.428 3.49507 157.206 0.343852 151.879 0.343852M155.451 8.21482C155.451 10.1272 154.016 11.5874 151.558 11.5874H147.666V4.77628H151.459C153.912 4.77628 155.446 5.95386 155.446 8.14888V8.21482H155.451Z" fill="var(--fill-0, #B2B1B2)"/>
<path id="Vector_6" d="M112.607 10.7396C111.942 10.7396 111.404 11.2907 111.404 11.9737L111.371 13.7118H113.928V10.7396H112.607Z" fill="var(--fill-0, #575756)"/>
<path id="Vector_7" d="M116.358 10.7396V13.7118H117.679C118.344 13.7118 118.882 13.1607 118.882 12.4777L118.915 10.7396H116.358Z" fill="var(--fill-0, #575756)"/>
<path id="Vector_8" d="M116.358 10.7396H113.928V13.7118H116.358V10.7396Z" fill="var(--fill-0, white)"/>
<path id="Vector_9" d="M62.277 6.44845C62.8715 6.976 63.5745 7.23978 64.3907 7.23978C65.2729 7.23978 66.023 6.9289 66.6458 6.30714C67.2733 5.68537 67.5894 4.93172 67.5894 4.04618C67.5894 3.16063 67.2733 2.4164 66.6458 1.79464C66.4948 1.6392 66.3344 1.50731 66.1646 1.38955C65.6456 1.03156 65.0559 0.852569 64.3907 0.852569C63.5037 0.852569 62.7488 1.16816 62.1261 1.79464C61.5033 2.4164 61.1919 3.17005 61.1919 4.04618C61.1919 4.9223 61.5033 5.68537 62.1261 6.30714C62.178 6.35895 62.2251 6.40605 62.277 6.44845Z" fill="var(--fill-0, #575756)"/>
<path id="Vector_10" d="M60.9938 13.236C60.9938 13.236 60.6069 11.8324 60.9938 10.3392C61.2391 9.3924 62.1827 8.32787 63.9613 8.24308C65.7353 8.1583 67.5233 8.91666 67.9149 10.5794C68.4528 12.8639 67.4714 15.1013 66.844 16.6228C66.2118 18.1442 64.4237 20.5747 63.7915 21.2342C63.1593 21.8936 61.7392 23.4151 60.739 22.8074C59.7388 22.1998 59.635 20.7349 60.121 19.7787C60.6069 18.8272 61.3806 18.0877 61.3806 16.2271C61.3806 14.3665 60.9938 13.236 60.9938 13.236Z" fill="var(--fill-0, #575756)"/>
<path id="Vector_11" d="M44.5944 32.4636C43.8631 32.4636 43.3064 32.3082 42.8299 31.8277L43.4385 31.2201C43.7405 31.5216 44.1557 31.6252 44.5991 31.6252C45.1653 31.6252 45.4625 31.4085 45.4625 31.0223C45.4625 30.8574 45.4153 30.7255 45.3115 30.6219C45.2172 30.5324 45.1228 30.4947 44.8775 30.457L44.3019 30.3675C43.8773 30.3063 43.5801 30.1791 43.3678 29.9671C43.1366 29.7458 43.0234 29.4255 43.0234 29.0204C43.0234 28.1584 43.6603 27.5555 44.7029 27.5555C45.3682 27.5555 45.8494 27.7203 46.2645 28.1207L45.6701 28.7095C45.3729 28.4174 45.0002 28.3751 44.6793 28.3751C44.1745 28.3751 43.9386 28.653 43.9386 28.9827C43.9386 29.1099 43.9717 29.2323 44.0754 29.3265C44.1698 29.416 44.3113 29.482 44.5142 29.5102L45.0898 29.5997C45.5286 29.661 45.8022 29.774 46.0098 29.9766C46.2693 30.2121 46.3825 30.5606 46.3825 30.994C46.3825 31.9314 45.6088 32.4589 44.5944 32.4589" fill="var(--fill-0, #1D1D1B)"/>
<path id="Vector_12" d="M47.2789 27.5743H48.18V28.2903H47.2789V27.5743ZM47.2931 28.9968H48.1753V32.4259H47.2931V28.9968Z" fill="var(--fill-0, #1D1D1B)"/>
<path id="Vector_13" d="M50.4021 32.4636C49.8454 32.4636 49.35 32.4024 48.8971 31.9549L49.4727 31.3802C49.7558 31.6723 50.1427 31.71 50.4163 31.71C50.723 31.71 51.0391 31.6111 51.0391 31.3426C51.0391 31.1683 50.9494 31.0458 50.6663 31.0176L50.0955 30.9657C49.4727 30.9045 49.0811 30.6266 49.0811 29.9766C49.0811 29.237 49.7228 28.8508 50.4446 28.8508C51.0013 28.8508 51.4542 28.9497 51.7939 29.2653L51.2514 29.8164C51.0485 29.6327 50.7418 29.5762 50.4304 29.5762C50.0766 29.5762 49.9256 29.7411 49.9256 29.9153C49.9256 30.0896 50.0294 30.1932 50.2936 30.2215L50.8503 30.2733C51.5486 30.3393 51.9024 30.7067 51.9024 31.3096C51.9024 32.0868 51.2372 32.4589 50.4069 32.4589" fill="var(--fill-0, #1D1D1B)"/>
<path id="Vector_14" d="M53.766 32.4212C53.0489 32.4212 52.7422 31.9125 52.7422 31.4132V29.6657H52.3695V28.9968H52.7422V27.9558H53.6244V28.9968H54.2472V29.6657H53.6244V31.3567C53.6244 31.5592 53.7188 31.677 53.9311 31.677H54.2519V32.4212H53.7707H53.766Z" fill="var(--fill-0, #1D1D1B)"/>
<path id="Vector_15" d="M55.7947 30.9328C55.7947 31.3944 56.0636 31.7194 56.5684 31.7194C56.9553 31.7194 57.144 31.6064 57.3657 31.3897L57.9036 31.9125C57.545 32.2799 57.1959 32.4683 56.559 32.4683C55.7239 32.4683 54.9266 32.0915 54.9266 30.6596C54.9266 29.5103 55.5493 28.8555 56.4646 28.8555C57.4459 28.8555 58.0026 29.5621 58.0026 30.5607V30.9328H55.79H55.7947ZM57.0544 29.953C56.96 29.7411 56.7618 29.5903 56.4646 29.5903C56.1674 29.5903 55.9692 29.7458 55.8749 29.953C55.8135 30.0802 55.7994 30.1744 55.7947 30.3346H57.1393C57.1298 30.1791 57.1204 30.0849 57.0591 29.953" fill="var(--fill-0, #1D1D1B)"/>
<path id="Vector_16" d="M63.0178 32.4212V30.2875C63.0178 29.807 62.7111 29.6469 62.4327 29.6469C62.1544 29.6469 61.843 29.807 61.843 30.2686V32.4212H60.9608V30.2875C60.9608 29.807 60.6541 29.6469 60.3805 29.6469C60.1068 29.6469 59.7907 29.807 59.7907 30.2875V32.4212H58.9085V28.8932H59.7719V29.2182C60.003 28.9827 60.3286 28.8555 60.6541 28.8555C61.0457 28.8555 61.3665 28.9968 61.5882 29.303C61.8855 28.9921 62.2063 28.8555 62.645 28.8555C62.9989 28.8555 63.3197 28.9686 63.5131 29.1664C63.7962 29.449 63.9 29.7835 63.9 30.1697V32.4259H63.0178V32.4212Z" fill="var(--fill-0, #1D1D1B)"/>
<path id="Vector_17" d="M66.7496 32.4259V32.1198C66.509 32.3553 66.2872 32.4589 65.8815 32.4589C65.4758 32.4589 65.1833 32.3506 64.9804 32.148C64.7917 31.9502 64.6879 31.6676 64.6879 31.3567C64.6879 30.7962 65.0747 30.3346 65.9098 30.3346H66.7307V30.1603C66.7307 29.774 66.542 29.6045 66.0702 29.6045C65.7541 29.6045 65.5843 29.694 65.3908 29.9106L64.8341 29.3595C65.1833 28.9827 65.5135 28.8555 66.1032 28.8555C67.0987 28.8555 67.6082 29.2747 67.6082 30.1038V32.4259H66.7496ZM66.726 30.9328H66.0561C65.7022 30.9328 65.5324 31.0741 65.5324 31.3379C65.5324 31.5828 65.7022 31.7382 66.0655 31.7382C66.2825 31.7382 66.4382 31.71 66.5892 31.5687C66.6883 31.4792 66.726 31.3426 66.726 31.1212V30.9328Z" fill="var(--fill-0, #1D1D1B)"/>
<path id="Vector_18" d="M71.3165 27.6026H70.3729V32.4259H71.3165V27.6026Z" fill="var(--fill-0, #1D1D1B)"/>
<path id="Vector_19" d="M74.52 32.4212V30.2875C74.52 29.807 74.2133 29.6469 73.9349 29.6469C73.6566 29.6469 73.3452 29.807 73.3452 30.2875V32.4212H72.463V28.8932H73.3263V29.2182C73.5575 28.9733 73.883 28.8555 74.2086 28.8555C74.5624 28.8555 74.8455 28.9686 75.0436 29.1664C75.3314 29.449 75.4022 29.7835 75.4022 30.1697V32.4259H74.52V32.4212Z" fill="var(--fill-0, #1D1D1B)"/>
<path id="Vector_20" d="M77.5394 32.4212C76.8223 32.4212 76.5156 31.9125 76.5156 31.4132V29.6657H76.1429V28.9968H76.5156V27.9558H77.3979V28.9968H78.0206V29.6657H77.3979V31.3567C77.3979 31.5592 77.4922 31.677 77.7045 31.677H78.0253V32.4212H77.5441H77.5394Z" fill="var(--fill-0, #1D1D1B)"/>
<path id="Vector_21" d="M79.5681 30.9328C79.5681 31.3944 79.837 31.7194 80.3418 31.7194C80.7287 31.7194 80.9174 31.6064 81.1439 31.3897L81.6817 31.9125C81.3231 32.2799 80.974 32.4683 80.3371 32.4683C79.502 32.4683 78.7047 32.0915 78.7047 30.6596C78.7047 29.5103 79.3275 28.8555 80.2427 28.8555C81.2288 28.8555 81.7808 29.5621 81.7808 30.5607V30.9328H79.5681ZM80.8325 29.953C80.7381 29.7411 80.54 29.5903 80.2427 29.5903C79.9455 29.5903 79.7474 29.7458 79.653 29.953C79.5917 30.0802 79.5775 30.1744 79.5728 30.3346H80.9174C80.908 30.1791 80.8985 30.0849 80.8372 29.953" fill="var(--fill-0, #1D1D1B)"/>
<path id="Vector_22" d="M83.9038 33.759C83.3613 33.759 82.9886 33.6506 82.6206 33.2973L83.1725 32.7415C83.3707 32.9299 83.5641 33.0147 83.8614 33.0147C84.3898 33.0147 84.5738 32.6426 84.5738 32.2846V31.9266C84.3426 32.1857 84.0784 32.2799 83.7293 32.2799C83.3801 32.2799 83.0876 32.1669 82.8895 31.969C82.5592 31.6346 82.5309 31.1824 82.5309 30.5654C82.5309 29.9483 82.5592 29.5008 82.8895 29.1711C83.0876 28.9733 83.3943 28.8602 83.7387 28.8602C84.1114 28.8602 84.3567 28.9638 84.6021 29.2323V28.9026H85.456V32.3035C85.456 33.1513 84.8521 33.7684 83.9038 33.7684M83.9887 29.6468C83.4651 29.6468 83.4132 30.0943 83.4132 30.5606C83.4132 31.027 83.4698 31.4839 83.9887 31.4839C84.5077 31.4839 84.5738 31.0317 84.5738 30.5606C84.5738 30.0896 84.5124 29.6468 83.9887 29.6468Z" fill="var(--fill-0, #1D1D1B)"/>
<path id="Vector_23" d="M88.4519 29.8588C88.315 29.7222 88.2018 29.6468 87.9848 29.6468C87.7159 29.6468 87.4139 29.8494 87.4139 30.2969V32.4212H86.5317V28.8932H87.3951V29.2323C87.5649 29.0298 87.9046 28.8508 88.282 28.8508C88.6264 28.8508 88.8717 28.9403 89.1171 29.1852L88.4519 29.8541V29.8588Z" fill="var(--fill-0, #1D1D1B)"/>
<path id="Vector_24" d="M91.4524 32.4259V32.1198C91.2118 32.3553 90.9901 32.4589 90.5843 32.4589C90.1786 32.4589 89.8861 32.3506 89.6832 32.148C89.4945 31.9502 89.3907 31.6676 89.3907 31.3567C89.3907 30.7962 89.7776 30.3346 90.6126 30.3346H91.4336V30.1603C91.4336 29.774 91.2448 29.6045 90.7731 29.6045C90.457 29.6045 90.2871 29.694 90.0937 29.9106L89.537 29.3595C89.8861 28.9827 90.2163 28.8555 90.8061 28.8555C91.8015 28.8555 92.3111 29.2747 92.3111 30.1038V32.4259H91.4477H91.4524ZM91.4288 30.9328H90.7589C90.4051 30.9328 90.2352 31.0741 90.2352 31.3379C90.2352 31.5828 90.4051 31.7382 90.7683 31.7382C90.9854 31.7382 91.141 31.71 91.292 31.5687C91.3911 31.4792 91.4288 31.3426 91.4288 31.1212V30.9328Z" fill="var(--fill-0, #1D1D1B)"/>
<path id="Vector_25" d="M95.3022 32.4212V32.0915C95.0569 32.3647 94.8021 32.4636 94.4294 32.4636C94.0756 32.4636 93.7642 32.3506 93.566 32.1433C93.2264 31.7995 93.198 31.2484 93.198 30.6549C93.198 30.0614 93.2264 29.515 93.566 29.1711C93.7642 28.9686 94.0661 28.8508 94.42 28.8508C94.7738 28.8508 95.0522 28.945 95.2833 29.2041V27.5978H96.1656V32.4212H95.3022ZM94.6795 29.6468C94.1511 29.6468 94.0803 30.0896 94.0803 30.6549C94.0803 31.2201 94.1463 31.6723 94.6795 31.6723C95.2126 31.6723 95.2833 31.2248 95.2833 30.6549C95.2833 30.0849 95.2079 29.6468 94.6795 29.6468Z" fill="var(--fill-0, #1D1D1B)"/>
<path id="Vector_26" d="M99.6804 32.0303C99.4587 32.2611 99.1048 32.4636 98.5812 32.4636C98.0575 32.4636 97.7131 32.2611 97.4913 32.0303C97.1705 31.6911 97.0903 31.2908 97.0903 30.6549C97.0903 30.019 97.1705 29.628 97.4913 29.2889C97.7178 29.0581 98.0622 28.8555 98.5812 28.8555C99.1001 28.8555 99.454 29.0533 99.6804 29.2889C100.001 29.628 100.081 30.019 100.081 30.6549C100.081 31.2908 100.006 31.6958 99.6804 32.0303ZM98.9963 29.8023C98.8925 29.6987 98.7604 29.6469 98.5812 29.6469C98.4019 29.6469 98.2745 29.7034 98.1754 29.8023C97.9914 29.9766 97.9726 30.2969 97.9726 30.6549C97.9726 31.0128 97.9914 31.3379 98.1754 31.5169C98.2792 31.6205 98.4113 31.6723 98.5812 31.6723C98.751 31.6723 98.8925 31.6158 98.9963 31.5169C99.1803 31.3426 99.1992 31.0223 99.1992 30.6549C99.1992 30.2875 99.1803 29.9766 98.9963 29.8023Z" fill="var(--fill-0, #1D1D1B)"/>
<path id="Vector_27" d="M104.625 32.4212V32.0915C104.379 32.3647 104.125 32.4636 103.752 32.4636C103.398 32.4636 103.087 32.3506 102.889 32.1433C102.549 31.7995 102.521 31.2484 102.521 30.6549C102.521 30.0614 102.549 29.515 102.889 29.1711C103.087 28.9686 103.389 28.8508 103.743 28.8508C104.096 28.8508 104.375 28.945 104.606 29.2041V27.5978H105.488V32.4212H104.625ZM104.002 29.6468C103.474 29.6468 103.403 30.0896 103.403 30.6549C103.403 31.2201 103.469 31.6723 104.002 31.6723C104.535 31.6723 104.606 31.2248 104.606 30.6549C104.606 30.0849 104.53 29.6468 104.002 29.6468Z" fill="var(--fill-0, #1D1D1B)"/>
<path id="Vector_28" d="M107.257 30.9328C107.257 31.3944 107.526 31.7194 108.031 31.7194C108.418 31.7194 108.607 31.6064 108.833 31.3897L109.371 31.9125C109.012 32.2799 108.663 32.4683 108.026 32.4683C107.191 32.4683 106.394 32.0915 106.394 30.6596C106.394 29.5103 107.017 28.8555 107.932 28.8555C108.918 28.8555 109.47 29.5621 109.47 30.5607V30.9328H107.257ZM108.517 29.953C108.423 29.7411 108.224 29.5903 107.927 29.5903C107.63 29.5903 107.432 29.7458 107.338 29.953C107.276 30.0802 107.262 30.1744 107.257 30.3346H108.602C108.592 30.1791 108.583 30.0849 108.522 29.953" fill="var(--fill-0, #1D1D1B)"/>
<path id="Vector_29" d="M114.844 32.4212L114.561 31.5687H112.843L112.551 32.4212H111.569L113.325 27.5978H114.065L115.83 32.4212H114.848H114.844ZM113.721 29.0251L113.112 30.7773H114.311L113.721 29.0251Z" fill="var(--fill-0, #1D1D1B)"/>
<path id="Vector_30" d="M118.396 32.4212V32.0915C118.151 32.3647 117.896 32.4636 117.523 32.4636C117.17 32.4636 116.858 32.3506 116.66 32.1433C116.32 31.7995 116.292 31.2484 116.292 30.6549C116.292 30.0614 116.32 29.515 116.66 29.1711C116.858 28.9686 117.16 28.8508 117.514 28.8508C117.868 28.8508 118.146 28.945 118.377 29.2041V27.5978H119.26V32.4212H118.396ZM117.773 29.6468C117.245 29.6468 117.174 30.0896 117.174 30.6549C117.174 31.2201 117.24 31.6723 117.773 31.6723C118.307 31.6723 118.377 31.2248 118.377 30.6549C118.377 30.0849 118.302 29.6468 117.773 29.6468Z" fill="var(--fill-0, #1D1D1B)"/>
<path id="Vector_31" d="M124.445 32.4212V30.2875C124.445 29.807 124.138 29.6469 123.86 29.6469C123.581 29.6469 123.27 29.807 123.27 30.2686V32.4212H122.388V30.2875C122.388 29.807 122.081 29.6469 121.807 29.6469C121.534 29.6469 121.218 29.807 121.218 30.2875V32.4212H120.335V28.8932H121.199V29.2182C121.43 28.9827 121.755 28.8555 122.081 28.8555C122.473 28.8555 122.793 28.9968 123.015 29.303C123.312 28.9921 123.633 28.8555 124.072 28.8555C124.426 28.8555 124.742 28.9686 124.94 29.1664C125.223 29.449 125.327 29.7835 125.327 30.1697V32.4259H124.445V32.4212Z" fill="var(--fill-0, #1D1D1B)"/>
<path id="Vector_32" d="M126.351 27.5743H127.252V28.2903H126.351V27.5743ZM126.365 28.9968H127.247V32.4259H126.365V28.9968Z" fill="var(--fill-0, #1D1D1B)"/>
<path id="Vector_33" d="M130.375 32.4212V30.2875C130.375 29.807 130.068 29.6469 129.79 29.6469C129.512 29.6469 129.2 29.807 129.2 30.2875V32.4212H128.318V28.8932H129.181V29.2182C129.413 28.9733 129.738 28.8555 130.064 28.8555C130.417 28.8555 130.7 28.9686 130.899 29.1664C131.186 29.449 131.257 29.7835 131.257 30.1697V32.4259H130.375V32.4212Z" fill="var(--fill-0, #1D1D1B)"/>
<path id="Vector_34" d="M132.276 27.5743H133.177V28.2903H132.276V27.5743ZM132.29 28.9968H133.173V32.4259H132.29V28.9968Z" fill="var(--fill-0, #1D1D1B)"/>
<path id="Vector_35" d="M135.404 32.4636C134.848 32.4636 134.352 32.4024 133.899 31.9549L134.475 31.3802C134.758 31.6723 135.145 31.71 135.418 31.71C135.725 31.71 136.041 31.6111 136.041 31.3426C136.041 31.1683 135.951 31.0458 135.668 31.0176L135.098 30.9657C134.475 30.9045 134.083 30.6266 134.083 29.9766C134.083 29.237 134.73 28.8508 135.447 28.8508C136.003 28.8508 136.456 28.9497 136.796 29.2653L136.253 29.8164C136.051 29.6327 135.744 29.5762 135.433 29.5762C135.079 29.5762 134.928 29.7411 134.928 29.9153C134.928 30.0896 135.032 30.1932 135.296 30.2215L135.852 30.2733C136.551 30.3393 136.905 30.7067 136.905 31.3096C136.905 32.0868 136.239 32.4589 135.404 32.4589" fill="var(--fill-0, #1D1D1B)"/>
<path id="Vector_36" d="M138.768 32.4212C138.051 32.4212 137.744 31.9125 137.744 31.4132V29.6657H137.372V28.9968H137.744V27.9558H138.627V28.9968H139.249V29.6657H138.627V31.3567C138.627 31.5592 138.721 31.677 138.933 31.677H139.254V32.4212H138.773H138.768Z" fill="var(--fill-0, #1D1D1B)"/>
<path id="Vector_37" d="M142.056 29.8588C141.92 29.7222 141.806 29.6468 141.589 29.6468C141.32 29.6468 141.019 29.8494 141.019 30.2969V32.4212H140.136V28.8932H141V29.2323C141.17 29.0298 141.509 28.8508 141.887 28.8508C142.231 28.8508 142.476 28.9403 142.722 29.1852L142.056 29.8541V29.8588Z" fill="var(--fill-0, #1D1D1B)"/>
<path id="Vector_38" d="M145.057 32.4259V32.1198C144.816 32.3553 144.595 32.4589 144.189 32.4589C143.783 32.4589 143.491 32.3506 143.288 32.148C143.099 31.9502 142.995 31.6676 142.995 31.3567C142.995 30.7962 143.382 30.3346 144.217 30.3346H145.038V30.1603C145.038 29.774 144.849 29.6045 144.382 29.6045C144.066 29.6045 143.892 29.694 143.703 29.9106L143.146 29.3595C143.495 28.9827 143.826 28.8555 144.415 28.8555C145.411 28.8555 145.92 29.2747 145.92 30.1038V32.4259H145.057ZM145.033 30.9328H144.363C144.01 30.9328 143.84 31.0741 143.84 31.3379C143.84 31.5828 144.01 31.7382 144.373 31.7382C144.59 31.7382 144.746 31.71 144.897 31.5687C144.996 31.4792 145.033 31.3426 145.033 31.1212V30.9328Z" fill="var(--fill-0, #1D1D1B)"/>
<path id="Vector_39" d="M148.355 32.4636C147.647 32.4636 146.774 32.0868 146.774 30.6549C146.774 29.2229 147.652 28.8555 148.355 28.8555C148.841 28.8555 149.209 29.0062 149.52 29.3313L148.926 29.9295C148.742 29.7316 148.586 29.6516 148.355 29.6516C148.142 29.6516 147.982 29.7269 147.855 29.8824C147.718 30.0519 147.657 30.2875 147.657 30.6596C147.657 31.0317 147.718 31.2766 147.855 31.4462C147.982 31.6016 148.147 31.677 148.355 31.677C148.586 31.677 148.742 31.5969 148.926 31.3991L149.52 31.9879C149.209 32.3129 148.841 32.4683 148.355 32.4683" fill="var(--fill-0, #1D1D1B)"/>
<path id="Vector_40" d="M150.28 27.5743H151.181V28.2903H150.28V27.5743ZM150.294 28.9968H151.176V32.4259H150.294V28.9968Z" fill="var(--fill-0, #1D1D1B)"/>
<path id="Vector_41" d="M154.691 32.0303C154.469 32.2611 154.115 32.4636 153.592 32.4636C153.068 32.4636 152.724 32.2611 152.497 32.0303C152.181 31.6911 152.096 31.2907 152.096 30.6549C152.096 30.019 152.176 29.628 152.497 29.2841C152.724 29.0533 153.068 28.8508 153.592 28.8508C154.115 28.8508 154.469 29.0486 154.691 29.2841C155.012 29.6233 155.092 30.019 155.092 30.6549C155.092 31.2907 155.016 31.6958 154.691 32.0303ZM154.007 29.8023C153.908 29.6987 153.771 29.6468 153.592 29.6468C153.412 29.6468 153.285 29.7034 153.186 29.8023C153.002 29.9766 152.983 30.2969 152.983 30.6549C152.983 31.0128 153.002 31.3379 153.186 31.5121C153.29 31.6158 153.422 31.6676 153.592 31.6676C153.762 31.6676 153.903 31.611 154.007 31.5121C154.191 31.3379 154.21 31.0175 154.21 30.6549C154.21 30.2922 154.191 29.9766 154.007 29.8023ZM153.813 28.3327H153.224L153.658 27.1833H154.587L153.813 28.3327Z" fill="var(--fill-0, #1D1D1B)"/>
<path id="Vector_42" d="M158.074 32.4212V30.2875C158.074 29.807 157.767 29.6469 157.489 29.6469C157.21 29.6469 156.899 29.807 156.899 30.2875V32.4212H156.017V28.8932H156.88V29.2182C157.111 28.9733 157.437 28.8555 157.762 28.8555C158.116 28.8555 158.399 28.9686 158.597 29.1664C158.885 29.449 158.956 29.7835 158.956 30.1697V32.4259H158.074V32.4212Z" fill="var(--fill-0, #1D1D1B)"/>
<path id="Vector_43" d="M44.1085 36.5663V37.7486H46.0145V38.5918H44.1085V40.5466H43.1649V35.7279H46.3447V36.5663H44.1085Z" fill="var(--fill-0, #1D1D1B)"/>
<path id="Vector_44" d="M47.2647 35.6996H48.1658V36.4156H47.2647V35.6996ZM47.2789 37.1221H48.1611V40.5513H47.2789V37.1221Z" fill="var(--fill-0, #1D1D1B)"/>
<path id="Vector_45" d="M51.3834 40.5466V38.4128C51.3834 37.9323 51.0768 37.7722 50.7984 37.7722C50.5201 37.7722 50.2087 37.9323 50.2087 38.4128V40.5466H49.3265V37.0185H50.1898V37.3435C50.421 37.0986 50.7465 36.9808 51.0721 36.9808C51.4259 36.9808 51.709 37.0939 51.9071 37.2917C52.1949 37.5743 52.2657 37.9088 52.2657 38.295V40.5513H51.3834V40.5466Z" fill="var(--fill-0, #1D1D1B)"/>
<path id="Vector_46" d="M55.2096 40.5466V40.2404C54.9738 40.4759 54.7473 40.5795 54.3416 40.5795C53.9358 40.5795 53.6433 40.4712 53.4404 40.2687C53.2517 40.0708 53.1479 39.7882 53.1479 39.4773C53.1479 38.9121 53.5348 38.4552 54.3699 38.4552H55.1908V38.2809C55.1908 37.8946 55.0021 37.7251 54.5303 37.7251C54.2142 37.7251 54.0443 37.8146 53.8509 38.0312L53.2942 37.4801C53.6433 37.1033 53.9736 36.9808 54.5633 36.9808C55.5588 36.9808 56.0683 37.4001 56.0683 38.2291V40.5513H55.2049L55.2096 40.5466ZM55.1861 39.0581H54.5161C54.1623 39.0581 53.9924 39.1994 53.9924 39.4632C53.9924 39.7081 54.1623 39.8636 54.5256 39.8636C54.7426 39.8636 54.8983 39.8353 55.0492 39.694C55.1483 39.6045 55.1861 39.4679 55.1861 39.2465V39.0581Z" fill="var(--fill-0, #1D1D1B)"/>
<path id="Vector_47" d="M59.2576 40.5466V38.4128C59.2576 37.9323 58.9509 37.7722 58.6726 37.7722C58.3942 37.7722 58.0828 37.9323 58.0828 38.4128V40.5466H57.2006V37.0185H58.064V37.3435C58.2951 37.0986 58.6207 36.9808 58.9462 36.9808C59.3001 36.9808 59.5831 37.0939 59.7813 37.2917C60.0691 37.5743 60.1398 37.9088 60.1398 38.295V40.5513H59.2576V40.5466Z" fill="var(--fill-0, #1D1D1B)"/>
<path id="Vector_48" d="M62.6733 40.589C61.9657 40.589 61.0928 40.2121 61.0928 38.7802C61.0928 37.3482 61.9657 36.9808 62.6733 36.9808C63.1593 36.9808 63.5273 37.1316 63.8387 37.4566L63.2442 38.0548C63.0602 37.857 62.9045 37.7769 62.6733 37.7769C62.461 37.7769 62.3006 37.8523 62.1732 38.0077C62.0364 38.1773 61.9751 38.4128 61.9751 38.7849C61.9751 39.157 62.0364 39.402 62.1732 39.5715C62.3006 39.727 62.4658 39.8023 62.6733 39.8023C62.9045 39.8023 63.0602 39.7223 63.2442 39.5244L63.8387 40.1132C63.5273 40.4382 63.1593 40.5937 62.6733 40.5937" fill="var(--fill-0, #1D1D1B)"/>
<path id="Vector_49" d="M64.6926 35.6996H65.5937V36.4156H64.6926V35.6996ZM64.7115 37.1221H65.5937V40.5513H64.7115V37.1221Z" fill="var(--fill-0, #1D1D1B)"/>
<path id="Vector_50" d="M67.4478 39.0581C67.4478 39.5197 67.7168 39.8447 68.2216 39.8447C68.6084 39.8447 68.7972 39.7317 69.0236 39.515L69.5614 40.0378C69.2029 40.4053 68.8538 40.5937 68.2169 40.5937C67.3818 40.5937 66.5845 40.2168 66.5845 38.7849C66.5845 37.6356 67.2072 36.9808 68.1225 36.9808C69.1085 36.9808 69.6605 37.6874 69.6605 38.686V39.0581H67.4478ZM68.7075 38.0736C68.6132 37.8617 68.415 37.7109 68.1178 37.7109C67.8206 37.7109 67.6224 37.8664 67.528 38.0736C67.4667 38.2008 67.4526 38.295 67.4478 38.4552H68.7924C68.783 38.2997 68.7736 38.2055 68.7122 38.0736" fill="var(--fill-0, #1D1D1B)"/>
<path id="Vector_51" d="M72.5762 37.9794C72.4394 37.8428 72.3261 37.7675 72.1091 37.7675C71.8402 37.7675 71.5382 37.97 71.5382 38.4175V40.5418H70.656V37.0138H71.5194V37.3529C71.6892 37.1504 72.0289 36.9714 72.4063 36.9714C72.7507 36.9714 72.9961 37.0609 73.2414 37.3058L72.5762 37.9747V37.9794Z" fill="var(--fill-0, #1D1D1B)"/>
<path id="Vector_52" d="M75.6664 40.5466V40.2404C75.4258 40.4759 75.204 40.5795 74.7983 40.5795C74.3926 40.5795 74.1001 40.4712 73.8972 40.2687C73.7085 40.0708 73.6047 39.7882 73.6047 39.4773C73.6047 38.9121 73.9915 38.4552 74.8266 38.4552H75.6475V38.2809C75.6475 37.8946 75.4588 37.7251 74.987 37.7251C74.6709 37.7251 74.5011 37.8146 74.3076 38.0312L73.7509 37.4801C74.1001 37.1033 74.4303 36.9808 75.02 36.9808C76.0155 36.9808 76.5251 37.4001 76.5251 38.2291V40.5513H75.6664V40.5466ZM75.6475 39.0581H74.9776C74.6237 39.0581 74.4539 39.1994 74.4539 39.4632C74.4539 39.7081 74.6237 39.8636 74.987 39.8636C75.204 39.8636 75.3597 39.8353 75.5107 39.694C75.6098 39.6045 75.6475 39.4679 75.6475 39.2465V39.0581Z" fill="var(--fill-0, #1D1D1B)"/>
<path id="Vector_53" d="M81.3703 40.5466V40.2168C81.125 40.49 80.8702 40.589 80.4975 40.589C80.1437 40.589 79.8323 40.4759 79.6341 40.2686C79.2944 39.9248 79.2661 39.3737 79.2661 38.7802C79.2661 38.1867 79.2944 37.6403 79.6341 37.2964C79.8323 37.0939 80.1342 36.9761 80.4881 36.9761C80.8419 36.9761 81.1203 37.0703 81.3514 37.3294V35.7232H82.2337V40.5466H81.3703ZM80.7476 37.7722C80.2191 37.7722 80.1484 38.2149 80.1484 38.7802C80.1484 39.3454 80.2144 39.7976 80.7476 39.7976C81.2807 39.7976 81.3514 39.3501 81.3514 38.7802C81.3514 38.2102 81.276 37.7722 80.7476 37.7722Z" fill="var(--fill-0, #1D1D1B)"/>
<path id="Vector_54" d="M84.0972 39.0581C84.0972 39.5197 84.3662 39.8447 84.871 39.8447C85.2578 39.8447 85.4466 39.7317 85.673 39.515L86.2109 40.0378C85.8523 40.4053 85.5032 40.5937 84.8663 40.5937C84.0312 40.5937 83.2339 40.2168 83.2339 38.7849C83.2339 37.6356 83.8566 36.9808 84.7719 36.9808C85.7579 36.9808 86.3099 37.6874 86.3099 38.686V39.0581H84.0972ZM85.3569 38.0736C85.2626 37.8617 85.0644 37.7109 84.7672 37.7109C84.4699 37.7109 84.2718 37.8664 84.1774 38.0736C84.1161 38.2008 84.102 38.295 84.0972 38.4552H85.4418C85.4324 38.2997 85.423 38.2055 85.3616 38.0736" fill="var(--fill-0, #1D1D1B)"/>
<path id="Vector_55" d="M90.0559 40.5466C89.3294 40.5466 89.0227 40.0378 89.0227 39.5385V35.7279H89.905V39.4867C89.905 39.6987 89.9899 39.807 90.2163 39.807H90.556V40.5513H90.0559V40.5466Z" fill="var(--fill-0, #1D1D1B)"/>
<path id="Vector_56" d="M93.8208 40.1556C93.5991 40.3864 93.2452 40.589 92.7215 40.589C92.1979 40.589 91.8534 40.3864 91.6317 40.1556C91.3109 39.8165 91.2307 39.4161 91.2307 38.7802C91.2307 38.1443 91.3109 37.7533 91.6317 37.4142C91.8582 37.1834 92.2026 36.9808 92.7215 36.9808C93.2405 36.9808 93.5943 37.1787 93.8208 37.4142C94.1416 37.7533 94.2218 38.1443 94.2218 38.7802C94.2218 39.4161 94.1463 39.8212 93.8208 40.1556ZM93.1367 37.9276C93.0329 37.824 92.9008 37.7722 92.7215 37.7722C92.5423 37.7722 92.4149 37.8287 92.3158 37.9276C92.1318 38.1019 92.1129 38.4222 92.1129 38.7802C92.1129 39.1382 92.1318 39.4632 92.3158 39.6422C92.4196 39.7458 92.5517 39.7976 92.7215 39.7976C92.8914 39.7976 93.0329 39.7411 93.1367 39.6422C93.3207 39.4679 93.3396 39.1476 93.3396 38.7802C93.3396 38.4128 93.3207 38.1019 93.1367 37.9276Z" fill="var(--fill-0, #1D1D1B)"/>
<path id="Vector_57" d="M96.4062 40.5889C95.8495 40.5889 95.3541 40.5277 94.9012 40.0802L95.4768 39.5056C95.7599 39.7976 96.1467 39.8353 96.4204 39.8353C96.727 39.8353 97.0431 39.7364 97.0431 39.4679C97.0431 39.2936 96.9535 39.1711 96.6704 39.1429L96.0996 39.0911C95.4768 39.0298 95.0852 38.7519 95.0852 38.1019C95.0852 37.3624 95.7316 36.9761 96.4487 36.9761C97.0054 36.9761 97.4583 37.075 97.798 37.3906L97.2554 37.9417C97.0526 37.758 96.7459 37.7015 96.4345 37.7015C96.0807 37.7015 95.9297 37.8664 95.9297 38.0407C95.9297 38.2149 96.0335 38.3186 96.2977 38.3468L96.8544 38.3986C97.5527 38.4646 97.9065 38.832 97.9065 39.4349C97.9065 40.2121 97.2413 40.5842 96.4109 40.5842" fill="var(--fill-0, #1D1D1B)"/>
<path id="Vector_58" d="M103.214 40.5466L102.271 38.6247H101.591V40.5466H100.648V35.7232H102.539C103.521 35.7232 104.106 36.392 104.106 37.1975C104.106 37.8758 103.691 38.295 103.224 38.4646L104.304 40.5466H103.209H103.214ZM102.478 36.5663H101.591V37.8381H102.478C102.893 37.8381 103.162 37.5743 103.162 37.2022C103.162 36.8301 102.889 36.5663 102.478 36.5663Z" fill="var(--fill-0, #1D1D1B)"/>
<path id="Vector_59" d="M105.686 39.0581C105.686 39.5197 105.955 39.8447 106.46 39.8447C106.847 39.8447 107.036 39.7317 107.262 39.515L107.8 40.0378C107.441 40.4053 107.092 40.5937 106.455 40.5937C105.62 40.5937 104.823 40.2168 104.823 38.7849C104.823 37.6356 105.446 36.9808 106.361 36.9808C107.347 36.9808 107.899 37.6874 107.899 38.686V39.0581H105.686ZM106.951 38.0736C106.856 37.8617 106.658 37.7109 106.361 37.7109C106.064 37.7109 105.866 37.8664 105.771 38.0736C105.71 38.2008 105.696 38.295 105.691 38.4552H107.036C107.026 38.2997 107.017 38.2055 106.955 38.0736" fill="var(--fill-0, #1D1D1B)"/>
<path id="Vector_60" d="M110.3 40.589C109.593 40.589 108.72 40.2121 108.72 38.7802C108.72 37.3482 109.593 36.9808 110.3 36.9808C110.786 36.9808 111.154 37.1316 111.466 37.4566L110.871 38.0548C110.687 37.857 110.532 37.7769 110.3 37.7769C110.088 37.7769 109.928 37.8523 109.8 38.0077C109.663 38.1773 109.602 38.4128 109.602 38.7849C109.602 39.157 109.663 39.402 109.8 39.5715C109.928 39.727 110.093 39.8023 110.3 39.8023C110.532 39.8023 110.687 39.7223 110.871 39.5244L111.466 40.1132C111.154 40.4382 110.786 40.5937 110.3 40.5937" fill="var(--fill-0, #1D1D1B)"/>
<path id="Vector_61" d="M114.367 40.5466V40.2215C114.136 40.4665 113.81 40.589 113.485 40.589C113.131 40.589 112.848 40.4712 112.65 40.2781C112.367 39.9955 112.291 39.661 112.291 39.2748V37.0185H113.174V39.1523C113.174 39.6328 113.476 39.7929 113.754 39.7929C114.032 39.7929 114.344 39.6328 114.344 39.1523V37.0185H115.226V40.5466H114.362H114.367Z" fill="var(--fill-0, #1D1D1B)"/>
<path id="Vector_62" d="M118.321 37.9794C118.184 37.8428 118.071 37.7675 117.854 37.7675C117.585 37.7675 117.283 37.97 117.283 38.4175V40.5418H116.401V37.0138H117.264V37.3529C117.434 37.1504 117.773 36.9714 118.151 36.9714C118.495 36.9714 118.741 37.0609 118.986 37.3058L118.321 37.9747V37.9794Z" fill="var(--fill-0, #1D1D1B)"/>
<path id="Vector_63" d="M120.76 40.5889C120.203 40.5889 119.708 40.5277 119.255 40.0802L119.831 39.5056C120.114 39.7976 120.5 39.8353 120.774 39.8353C121.081 39.8353 121.397 39.7364 121.397 39.4679C121.397 39.2936 121.307 39.1711 121.024 39.1429L120.453 39.0911C119.83 39.0298 119.439 38.7519 119.439 38.1019C119.439 37.3624 120.085 36.9761 120.802 36.9761C121.359 36.9761 121.812 37.075 122.152 37.3906L121.609 37.9417C121.406 37.758 121.1 37.7015 120.788 37.7015C120.434 37.7015 120.283 37.8664 120.283 38.0407C120.283 38.2149 120.387 38.3186 120.651 38.3468L121.208 38.3986C121.906 38.4646 122.26 38.832 122.26 39.4349C122.26 40.2121 121.595 40.5842 120.765 40.5842" fill="var(--fill-0, #1D1D1B)"/>
<path id="Vector_64" d="M125.624 40.1556C125.402 40.3864 125.048 40.589 124.525 40.589C124.001 40.589 123.657 40.3864 123.435 40.1556C123.114 39.8165 123.034 39.4161 123.034 38.7802C123.034 38.1443 123.114 37.7533 123.435 37.4142C123.657 37.1834 124.006 36.9808 124.525 36.9808C125.044 36.9808 125.398 37.1787 125.624 37.4142C125.945 37.7533 126.025 38.1443 126.025 38.7802C126.025 39.4161 125.95 39.8212 125.624 40.1556ZM124.94 37.9276C124.836 37.824 124.704 37.7722 124.525 37.7722C124.346 37.7722 124.218 37.8287 124.119 37.9276C123.935 38.1019 123.916 38.4222 123.916 38.7802C123.916 39.1382 123.935 39.4632 124.119 39.6422C124.223 39.7458 124.355 39.7976 124.525 39.7976C124.695 39.7976 124.836 39.7411 124.94 39.6422C125.124 39.4679 125.143 39.1476 125.143 38.7802C125.143 38.4128 125.124 38.1019 124.94 37.9276Z" fill="var(--fill-0, #1D1D1B)"/>
<path id="Vector_65" d="M128.205 40.5889C127.648 40.5889 127.153 40.5277 126.7 40.0802L127.275 39.5056C127.558 39.7976 127.945 39.8353 128.219 39.8353C128.526 39.8353 128.842 39.7364 128.842 39.4679C128.842 39.2936 128.752 39.1711 128.469 39.1429L127.898 39.0911C127.275 39.0298 126.884 38.7519 126.884 38.1019C126.884 37.3624 127.53 36.9761 128.247 36.9761C128.804 36.9761 129.257 37.075 129.597 37.3906L129.054 37.9417C128.851 37.758 128.544 37.7015 128.233 37.7015C127.879 37.7015 127.728 37.8664 127.728 38.0407C127.728 38.2149 127.832 38.3186 128.096 38.3468L128.653 38.3986C129.351 38.4646 129.705 38.832 129.705 39.4349C129.705 40.2121 129.04 40.5842 128.209 40.5842" fill="var(--fill-0, #1D1D1B)"/>
<path id="Vector_66" d="M134.324 38.7331H133.394V40.5466H132.451V35.7232H134.324C135.329 35.7232 135.918 36.4062 135.918 37.2258C135.918 38.0454 135.329 38.7284 134.324 38.7284M134.277 36.5663H133.394V37.8852H134.277C134.701 37.8852 134.975 37.6214 134.975 37.2258C134.975 36.8301 134.701 36.5616 134.277 36.5616" fill="var(--fill-0, #1D1D1B)"/>
<path id="Vector_67" d="M138.862 40.5466V40.2215C138.631 40.4665 138.306 40.5889 137.98 40.5889C137.626 40.5889 137.343 40.4712 137.145 40.2781C136.862 39.9954 136.787 39.661 136.787 39.2748V37.0185H137.669V39.1523C137.669 39.6328 137.975 39.7976 138.254 39.7976C138.532 39.7976 138.844 39.6375 138.844 39.1523V37.0185H139.726V40.5466H138.862ZM138.466 36.458H137.876L138.31 35.3087H139.24L138.466 36.458Z" fill="var(--fill-0, #1D1D1B)"/>
<path id="Vector_68" d="M143.486 40.2686C143.288 40.4712 142.976 40.589 142.632 40.589C142.25 40.589 141.995 40.4853 141.75 40.2168V40.5466H140.896V35.7232H141.778V37.3294C142 37.0703 142.273 36.9761 142.632 36.9761C142.991 36.9761 143.288 37.0939 143.486 37.2964C143.826 37.645 143.854 38.1914 143.854 38.7802C143.854 39.369 143.826 39.9248 143.486 40.2686ZM142.373 37.7722C141.844 37.7722 141.778 38.2149 141.778 38.7802C141.778 39.3454 141.844 39.7976 142.373 39.7976C142.901 39.7976 142.967 39.3501 142.967 38.7802C142.967 38.2102 142.901 37.7722 142.373 37.7722Z" fill="var(--fill-0, #1D1D1B)"/>
<path id="Vector_69" d="M145.873 40.5466C145.147 40.5466 144.84 40.0378 144.84 39.5385V35.7279H145.722V39.4867C145.722 39.6987 145.807 39.807 146.034 39.807H146.373V40.5513H145.873V40.5466Z" fill="var(--fill-0, #1D1D1B)"/>
<path id="Vector_70" d="M147.246 35.6996H148.147V36.4156H147.246V35.6996ZM147.26 37.1221H148.142V40.5513H147.26V37.1221Z" fill="var(--fill-0, #1D1D1B)"/>
<path id="Vector_71" d="M150.714 40.589C150.006 40.589 149.133 40.2121 149.133 38.7802C149.133 37.3482 150.006 36.9808 150.714 36.9808C151.2 36.9808 151.568 37.1316 151.879 37.4566L151.285 38.0548C151.101 37.857 150.945 37.7769 150.714 37.7769C150.501 37.7769 150.341 37.8523 150.214 38.0077C150.077 38.1773 150.015 38.4128 150.015 38.7849C150.015 39.157 150.077 39.402 150.214 39.5715C150.341 39.727 150.506 39.8023 150.714 39.8023C150.945 39.8023 151.101 39.7223 151.285 39.5244L151.879 40.1132C151.568 40.4382 151.2 40.5937 150.714 40.5937" fill="var(--fill-0, #1D1D1B)"/>
<path id="Vector_72" d="M155.087 40.1556C154.865 40.3864 154.512 40.589 153.988 40.589C153.464 40.589 153.12 40.3864 152.898 40.1556C152.577 39.8165 152.497 39.4161 152.497 38.7802C152.497 38.1443 152.577 37.7533 152.898 37.4142C153.125 37.1834 153.469 36.9808 153.988 36.9808C154.507 36.9808 154.861 37.1787 155.087 37.4142C155.408 37.7533 155.488 38.1443 155.488 38.7802C155.488 39.4161 155.413 39.8212 155.087 40.1556ZM154.403 37.9276C154.299 37.824 154.167 37.7722 153.988 37.7722C153.809 37.7722 153.681 37.8287 153.582 37.9276C153.398 38.1019 153.379 38.4222 153.379 38.7802C153.379 39.1382 153.398 39.4632 153.582 39.6422C153.686 39.7458 153.818 39.7976 153.988 39.7976C154.158 39.7976 154.299 39.7411 154.403 39.6422C154.587 39.4679 154.606 39.1476 154.606 38.7802C154.606 38.4128 154.587 38.1019 154.403 37.9276Z" fill="var(--fill-0, #1D1D1B)"/>
<path id="Vector_73" d="M157.673 40.5889C157.116 40.5889 156.621 40.5277 156.168 40.0802L156.743 39.5056C157.026 39.7976 157.413 39.8353 157.687 39.8353C157.993 39.8353 158.31 39.7364 158.31 39.4679C158.31 39.2936 158.22 39.1711 157.937 39.1429L157.366 39.0911C156.743 39.0298 156.352 38.7519 156.352 38.1019C156.352 37.3624 156.998 36.9761 157.715 36.9761C158.272 36.9761 158.725 37.075 159.064 37.3906L158.522 37.9417C158.319 37.758 158.012 37.7015 157.701 37.7015C157.347 37.7015 157.196 37.8664 157.196 38.0407C157.196 38.2149 157.3 38.3186 157.564 38.3468L158.121 38.3986C158.819 38.4646 159.173 38.832 159.173 39.4349C159.173 40.2121 158.508 40.5842 157.677 40.5842" fill="var(--fill-0, #1D1D1B)"/>
<path id="Vector_74" d="M6.97403 8.59636C7.78551 11.6157 11.0786 13.7636 16.3437 14.7622C23.2035 10.3298 26.6853 5.47341 25.6804 1.72398C25.52 1.13519 25.2558 0.574658 24.8878 0.0565217C18.0563 2.00189 11.7155 4.79983 6.85137 8.00286C6.88439 8.20069 6.92214 8.39852 6.97403 8.59636Z" fill="var(--fill-0, #858686)"/>
<path id="Vector_75" d="M33.8895 21.8088C33.682 21.0364 33.2904 20.3157 32.7148 19.6609C30.7757 17.4282 26.7797 15.8974 21.4579 15.3463C20.6181 15.3039 19.8727 15.2474 19.1839 15.172C19.0565 15.1626 18.9291 15.1626 18.8018 15.1531C18.698 15.1531 18.5942 15.1296 18.4998 15.0919C11.9844 14.3053 7.89401 12.0019 6.97874 8.59165C6.92684 8.39382 6.88438 8.19598 6.85135 7.99344C3.00628 10.9468 0.637903 13.9991 0.114218 16.717C-0.0556256 17.5743 -0.036754 18.3939 0.175551 19.1663C0.383138 19.9388 0.774722 20.6595 1.34559 21.3143C3.28464 23.547 7.28068 25.0778 12.6025 25.6289C13.4422 25.6713 17.8157 26.1753 17.8535 26.1518C23.3828 26.8348 26.9259 28.6624 27.6053 31.1918C27.7327 31.6582 27.7704 32.068 27.7044 32.5861C31.2522 29.7646 33.4413 26.8536 33.9462 24.2582C34.116 23.4057 34.0924 22.5813 33.8895 21.8088Z" fill="var(--fill-0, #B2B1B2)"/>
<path id="Vector_76" d="M17.8535 26.1518C10.9465 30.5983 7.43638 35.4782 8.446 39.2371C8.60169 39.8259 8.87061 40.3864 9.23861 40.9045C16.2683 38.9026 22.7931 35.9116 27.7091 32.5861C27.7704 32.0679 27.7327 31.6582 27.61 31.1918C26.9307 28.6624 23.3828 26.8348 17.8535 26.1518Z" fill="var(--fill-0, #858686)"/>
</g>
</svg>
